<?xml version="1.0" encoding="utf-8"?>
<svg t="1628698099036" class="icon" viewBox="0 0 1024 1024" version="1.1" p-id="2169" width="512" height="512" xmlns="http://www.w3.org/2000/svg">
  <defs/>
  <path d="M1020.169576 510.723192c0-280.897756-227.27182-510.723192-510.723192-510.723192C228.548628 0 1.276808 227.27182 1.276808 510.723192c0 217.057357 135.341646 400.917706 326.862843 474.972569L231.102244 538.812968l-28.089775-127.680798-45.965087-222.164589 186.413965-40.857855 68.947631 321.755611c17.875312 86.822943 58.733167 132.78803 122.573566 120.01995 51.072319-10.214464 74.054863-53.625935 79.162094-84.269327 2.553616-12.76808 0-28.089776-2.553616-40.857855l-76.608478-354.952619 186.413965-40.857855 86.822942 406.024938C843.970075 638.40399 938.453865 663.94015 938.453865 663.94015l-181.306733 38.304239c-53.625935 12.76808-89.376559-84.269327-89.376558-84.269327H665.216958c-15.321696 40.857855-33.197007 109.805486-165.985038 137.895262-10.214464 2.553616-17.875312 2.553616-28.089775 5.107232l56.179551 263.022444c273.236908-12.76808 492.84788-237.486284 492.84788-513.276808z" fill="#8FC265" p-id="2170"/>
  <path d="M 1016.622 652.632 C 1016.622 651.322 1015.91 650.668 1014.485 650.014 L 822.086 606.829 L 820.661 606.829 L 628.263 650.014 C 626.839 650.014 626.125 651.322 626.125 652.632 C 626.125 655.249 602.61 947.733 819.948 1015.783 L 822.086 1015.783 C 1040.138 947.079 1016.622 655.249 1016.622 652.632" fill="#798CE5" p-id="34696" style=""/>
  <path d="M 980.993 683.385 C 980.993 682.076 980.281 681.422 978.856 681.422 L 822.086 646.087 L 820.661 646.087 L 663.894 681.422 C 663.18 681.422 661.755 682.73 661.755 683.385 C 661.755 685.348 642.514 924.178 819.948 979.794 L 821.374 979.794 C 999.52 924.178 980.993 685.348 980.993 683.385" fill="#FFFFFF" p-id="34697" style=""/>
  <path d="M 819.236 698.434 L 714.486 721.99 C 713.774 721.99 713.061 722.644 713.061 723.299 C 712.347 724.607 700.235 883.608 819.236 920.905 L 820.661 920.905 C 938.951 883.608 926.123 724.607 926.123 723.299 C 926.123 722.644 925.411 721.99 924.699 721.99 L 819.236 698.434" fill="#798CE5" p-id="34698" style=""/>
</svg>